<?xml version="1.0" standalone="no"?><!DOCTYPE svg PUBLIC "-//W3C//DTD SVG 1.1//EN" "http://www.w3.org/Graphics/SVG/1.1/DTD/svg11.dtd"><svg t="1492510413178" class="icon" style="" viewBox="0 0 1024 1024" version="1.1" xmlns="http://www.w3.org/2000/svg" p-id="1154" xmlns:xlink="http://www.w3.org/1999/xlink" width="48" height="48"><defs><style type="text/css"></style></defs><path d="M873.531 298.439 727.89 150.781C715.481 138.201 691.095 128 673.424 128L192 128c-35.341 0-64 28.651-64 63.994l0 640.012C128 867.353 156.651 896 191.994 896l640.012 0C867.353 896 896 867.346 896 831.998L896 353.225C896 335.553 885.94 311.021 873.531 298.439zM320 192l256 0 0 176.002c0 8.835-7.165 15.998-16.002 15.998L336.002 384c-8.838 0-16.002-7.164-16.002-15.998L320 192zM704 832 320 832 320 656.005c0-8.84 7.159-16.005 15.996-16.005l352.008 0c8.834 0 15.996 7.169 15.996 16.005L704 832zM832 799.992C832 817.67 817.679 832 800.002 832L768 832 768 608.004C768 590.332 753.672 576 735.996 576L288.004 576C270.329 576 256 590.328 256 608.004L256 832l-32.002 0C206.326 832 192 817.679 192 800.002L192 223.998C192 206.326 206.335 192 223.991 192L256 192l0 224.005C256 433.674 270.326 448 287.997 448l320.006 0C625.677 448 640 433.676 640 416.005L640 192l17.174 0c8.842 0 21.036 5.096 27.24 11.387L820.77 341.63c6.202 6.289 11.23 18.553 11.23 27.392L832 799.992z" p-id="1155" fill="#8a8a8a"></path><path d="M480 352c17.673 0 32-14.327 32-32l0-64c0-17.673-14.327-32-32-32s-32 14.327-32 32l0 64C448 337.673 462.327 352 480 352z" p-id="1156" fill="#8a8a8a"></path></svg>